<mxfile><diagram id="55MtdcbTN-pnRmVGpxf6" name="Page-1"><mxGraphModel dx="1054" dy="605" grid="1" gridSize="10" guides="1" tooltips="1" connect="1" arrows="1" fold="1" page="1" pageScale="1" pageWidth="850" pageHeight="1100" math="0" shadow="0"><root><mxCell id="0"/><mxCell id="1" parent="0"/><mxCell id="2" value="" style="shape=waypoint;sketch=0;fillStyle=solid;size=6;pointerEvents=1;points=[];fillColor=none;resizable=0;rotatable=0;perimeter=centerPerimeter;snapToPoint=1;strokeWidth=20;strokeColor=#121212;" vertex="1" parent="1"><mxGeometry x="220" y="50" width="40" height="40" as="geometry"/></mxCell><mxCell id="3" value="" style="endArrow=classic;html=1;exitX=0.434;exitY=0.621;exitDx=0;exitDy=0;exitPerimeter=0;" edge="1" parent="1" source="2"><mxGeometry width="50" height="50" relative="1" as="geometry"><mxPoint x="250" y="90" as="sourcePoint"/><mxPoint x="240" y="160" as="targetPoint"/></mxGeometry></mxCell><mxCell id="12" value="" style="edgeStyle=none;html=1;fontSize=20;" edge="1" parent="1" source="4" target="11"><mxGeometry relative="1" as="geometry"/></mxCell><mxCell id="4" value="&lt;p style=&quot;font-size: 20px&quot;&gt;accepts login credentials&lt;/p&gt;" style="rounded=1;whiteSpace=wrap;html=1;strokeColor=#121212;strokeWidth=2;" vertex="1" parent="1"><mxGeometry x="165" y="160" width="150" height="60" as="geometry"/></mxCell><mxCell id="14" value="" style="edgeStyle=none;html=1;fontSize=20;" edge="1" parent="1" source="11" target="13"><mxGeometry relative="1" as="geometry"/></mxCell><mxCell id="11" value="&lt;p style=&quot;font-size: 20px&quot;&gt;checks database&lt;/p&gt;" style="rounded=1;whiteSpace=wrap;html=1;strokeColor=#121212;strokeWidth=2;" vertex="1" parent="1"><mxGeometry x="165" y="300" width="150" height="60" as="geometry"/></mxCell><mxCell id="16" value="" style="edgeStyle=none;html=1;fontSize=20;" edge="1" parent="1" source="13"><mxGeometry relative="1" as="geometry"><mxPoint x="240" y="730" as="targetPoint"/></mxGeometry></mxCell><mxCell id="13" value="&lt;font style=&quot;font-size: 20px&quot;&gt;is Correct?&lt;/font&gt;" style="rhombus;whiteSpace=wrap;html=1;strokeColor=#121212;rounded=1;strokeWidth=2;" vertex="1" parent="1"><mxGeometry x="170" y="440" width="140" height="160" as="geometry"/></mxCell><mxCell id="17" value="&lt;p style=&quot;font-size: 20px&quot;&gt;Login&lt;/p&gt;" style="rounded=1;whiteSpace=wrap;html=1;strokeColor=#121212;strokeWidth=2;" vertex="1" parent="1"><mxGeometry x="165" y="730" width="150" height="60" as="geometry"/></mxCell><mxCell id="20" value="" style="endArrow=classic;html=1;fontSize=20;exitX=1;exitY=0.5;exitDx=0;exitDy=0;" edge="1" parent="1" source="13"><mxGeometry width="50" height="50" relative="1" as="geometry"><mxPoint x="490" y="580" as="sourcePoint"/><mxPoint x="440" y="880" as="targetPoint"/><Array as="points"><mxPoint x="440" y="520"/></Array></mxGeometry></mxCell><mxCell id="21" value="" style="endArrow=classic;html=1;fontSize=20;exitX=0.5;exitY=1;exitDx=0;exitDy=0;" edge="1" parent="1" source="17"><mxGeometry width="50" height="50" relative="1" as="geometry"><mxPoint x="490" y="820" as="sourcePoint"/><mxPoint x="240" y="880" as="targetPoint"/></mxGeometry></mxCell><mxCell id="22" value="" style="endArrow=none;html=1;fontSize=20;" edge="1" parent="1"><mxGeometry width="50" height="50" relative="1" as="geometry"><mxPoint x="120" y="880" as="sourcePoint"/><mxPoint x="560" y="880" as="targetPoint"/></mxGeometry></mxCell><mxCell id="23" value="" style="endArrow=classic;html=1;fontSize=20;" edge="1" parent="1"><mxGeometry width="50" height="50" relative="1" as="geometry"><mxPoint x="320" y="880" as="sourcePoint"/><mxPoint x="320" y="1000" as="targetPoint"/></mxGeometry></mxCell><mxCell id="24" value="" style="shape=waypoint;sketch=0;fillStyle=solid;size=6;pointerEvents=1;points=[];fillColor=none;resizable=0;rotatable=0;perimeter=centerPerimeter;snapToPoint=1;strokeWidth=20;strokeColor=#121212;" vertex="1" parent="1"><mxGeometry x="300" y="980" width="40" height="40" as="geometry"/></mxCell><mxCell id="26" value="NO" style="text;html=1;strokeColor=none;fillColor=none;align=center;verticalAlign=middle;whiteSpace=wrap;rounded=0;fontSize=20;" vertex="1" parent="1"><mxGeometry x="350" y="490" width="60" height="30" as="geometry"/></mxCell><mxCell id="27" value="YES" style="text;html=1;strokeColor=none;fillColor=none;align=center;verticalAlign=middle;whiteSpace=wrap;rounded=0;fontSize=20;" vertex="1" parent="1"><mxGeometry x="180" y="630" width="60" height="30" as="geometry"/></mxCell></root></mxGraphModel></diagram></mxfile>